<?xml version="1.0" encoding="UTF-8" standalone="no"?>
<!DOCTYPE svg PUBLIC "-//W3C//DTD SVG 1.1//EN"
 "http://www.w3.org/Graphics/SVG/1.1/DTD/svg11.dtd">
<!-- Generated by graphviz version 12.2.1 (20241206.2353)
 -->
<!-- Title: worker_control_flow_metal_self_attn Pages: 1 -->
<svg width="1184pt" height="1229pt"
 viewBox="0.00 0.00 1183.66 1229.44" xmlns="http://www.w3.org/2000/svg" xmlns:xlink="http://www.w3.org/1999/xlink">
<g id="graph0" class="graph" transform="scale(1 1) rotate(0) translate(15.84 1213.6)">
<title>worker_control_flow_metal_self_attn</title>
<polygon fill="white" stroke="none" points="-15.84,15.84 -15.84,-1213.6 1167.82,-1213.6 1167.82,15.84 -15.84,15.84"/>
<!-- start -->
<g id="node1" class="node">
<title>start</title>
<path fill="#dfeaf6" stroke="#3b5870" d="M158.69,-1197.76C158.69,-1197.76 47.54,-1197.76 47.54,-1197.76 41.54,-1197.76 35.54,-1191.76 35.54,-1185.76 35.54,-1185.76 35.54,-1162.24 35.54,-1162.24 35.54,-1156.24 41.54,-1150.24 47.54,-1150.24 47.54,-1150.24 158.69,-1150.24 158.69,-1150.24 164.69,-1150.24 170.69,-1156.24 170.69,-1162.24 170.69,-1162.24 170.69,-1185.76 170.69,-1185.76 170.69,-1191.76 164.69,-1197.76 158.69,-1197.76"/>
<text text-anchor="middle" x="103.11" y="-1181.55" font-family="Helvetica,sans-Serif" font-size="11.00" fill="#1f2933">Worker starts up</text>
<text text-anchor="middle" x="103.11" y="-1169.55" font-family="Helvetica,sans-Serif" font-size="11.00" fill="#1f2933">and reads debug settings</text>
<text text-anchor="middle" x="103.11" y="-1157.55" font-family="Helvetica,sans-Serif" font-size="11.00" fill="#1f2933">(__init__)</text>
</g>
<!-- init -->
<g id="node2" class="node">
<title>init</title>
<path fill="#dfeaf6" stroke="#3b5870" d="M154.19,-1130C154.19,-1130 52.04,-1130 52.04,-1130 46.04,-1130 40.04,-1124 40.04,-1118 40.04,-1118 40.04,-1106 40.04,-1106 40.04,-1100 46.04,-1094 52.04,-1094 52.04,-1094 154.19,-1094 154.19,-1094 160.19,-1094 166.19,-1100 166.19,-1106 166.19,-1106 166.19,-1118 166.19,-1118 166.19,-1124 160.19,-1130 154.19,-1130"/>
<text text-anchor="middle" x="103.11" y="-1113.55" font-family="Helvetica,sans-Serif" font-size="11.00" fill="#1f2933">Worker sets up devices</text>
<text text-anchor="middle" x="103.11" y="-1101.55" font-family="Helvetica,sans-Serif" font-size="11.00" fill="#1f2933">(init_device)</text>
</g>
<!-- start&#45;&gt;init -->
<g id="edge1" class="edge">
<title>start&#45;&gt;init</title>
<path fill="none" stroke="#657b8f" stroke-width="1.15" d="M102.98,-1149.85C102.98,-1149.85 102.98,-1138.97 102.98,-1138.97"/>
<polygon fill="#657b8f" stroke="#657b8f" stroke-width="1.15" points="105.43,-1138.97 102.98,-1131.97 100.53,-1138.97 105.43,-1138.97"/>
</g>
<!-- fast -->
<g id="node3" class="node">
<title>fast</title>
<path fill="#fff4d8" stroke="#8a6f35" d="M91.29,-1071.94C91.29,-1071.94 11.82,-1058.06 11.82,-1058.06 5.91,-1057.03 5.91,-1054.97 11.82,-1053.94 11.82,-1053.94 91.29,-1040.06 91.29,-1040.06 97.2,-1039.03 109.02,-1039.03 114.94,-1040.06 114.94,-1040.06 194.41,-1053.94 194.41,-1053.94 200.32,-1054.97 200.32,-1057.03 194.41,-1058.06 194.41,-1058.06 114.94,-1071.94 114.94,-1071.94 109.02,-1072.97 97.2,-1072.97 91.29,-1071.94"/>
<text text-anchor="middle" x="103.11" y="-1051.55" font-family="Helvetica,sans-Serif" font-size="11.00" fill="#1f2933">Single&#45;process run?</text>
</g>
<!-- init&#45;&gt;fast -->
<g id="edge2" class="edge">
<title>init&#45;&gt;fast</title>
<path fill="none" stroke="#657b8f" stroke-width="1.15" d="M102.98,-1093.66C102.98,-1093.66 102.98,-1082.93 102.98,-1082.93"/>
<polygon fill="#657b8f" stroke="#657b8f" stroke-width="1.15" points="105.43,-1082.93 102.98,-1075.93 100.53,-1082.93 105.43,-1082.93"/>
</g>
<!-- single -->
<g id="node4" class="node">
<title>single</title>
<path fill="#dfeaf6" stroke="#3b5870" d="M168.81,-961.76C168.81,-961.76 37.41,-961.76 37.41,-961.76 31.41,-961.76 25.41,-955.76 25.41,-949.76 25.41,-949.76 25.41,-902.24 25.41,-902.24 25.41,-896.24 31.41,-890.24 37.41,-890.24 37.41,-890.24 168.81,-890.24 168.81,-890.24 174.81,-890.24 180.81,-896.24 180.81,-902.24 180.81,-902.24 180.81,-949.76 180.81,-949.76 180.81,-955.76 174.81,-961.76 168.81,-961.76"/>
<text text-anchor="middle" x="103.11" y="-945.55" font-family="Helvetica,sans-Serif" font-size="11.00" fill="#1f2933">Use Metal fast path</text>
<text text-anchor="middle" x="103.11" y="-933.55" font-family="Helvetica,sans-Serif" font-size="11.00" fill="#1f2933">set MLX device</text>
<text text-anchor="middle" x="103.11" y="-921.55" font-family="Helvetica,sans-Serif" font-size="11.00" fill="#1f2933">set torch device</text>
<text text-anchor="middle" x="103.11" y="-909.55" font-family="Helvetica,sans-Serif" font-size="11.00" fill="#1f2933">create model runner</text>
<text text-anchor="middle" x="103.11" y="-897.55" font-family="Helvetica,sans-Serif" font-size="11.00" fill="#1f2933">(_init_device_single_process)</text>
</g>
<!-- fast&#45;&gt;single -->
<g id="edge3" class="edge">
<title>fast&#45;&gt;single</title>
<path fill="none" stroke="#657b8f" stroke-width="1.15" d="M193.98,-1053.53C193.98,-1038.16 193.98,-956.17 193.98,-956.17 193.98,-956.17 189.7,-956.17 189.7,-956.17"/>
<polygon fill="#657b8f" stroke="#657b8f" stroke-width="1.15" points="189.7,-953.72 182.7,-956.17 189.7,-958.62 189.7,-953.72"/>
<text text-anchor="middle" x="202.98" y="-989.41" font-family="Times,serif" font-size="14.00" fill="#7b5d2d">yes</text>
</g>
<!-- superinit -->
<g id="node5" class="node">
<title>superinit</title>
<path fill="#dfeaf6" stroke="#3b5870" d="M169.56,-1018C169.56,-1018 36.66,-1018 36.66,-1018 30.66,-1018 24.66,-1012 24.66,-1006 24.66,-1006 24.66,-994 24.66,-994 24.66,-988 30.66,-982 36.66,-982 36.66,-982 169.56,-982 169.56,-982 175.56,-982 181.56,-988 181.56,-994 181.56,-994 181.56,-1006 181.56,-1006 181.56,-1012 175.56,-1018 169.56,-1018"/>
<text text-anchor="middle" x="103.11" y="-1001.55" font-family="Helvetica,sans-Serif" font-size="11.00" fill="#1f2933">Use normal device setup path</text>
<text text-anchor="middle" x="103.11" y="-989.55" font-family="Helvetica,sans-Serif" font-size="11.00" fill="#1f2933">(super().init_device)</text>
</g>
<!-- fast&#45;&gt;superinit -->
<g id="edge4" class="edge">
<title>fast&#45;&gt;superinit</title>
<path fill="none" stroke="#657b8f" stroke-width="1.15" d="M102.98,-1037.66C102.98,-1037.66 102.98,-1026.93 102.98,-1026.93"/>
<polygon fill="#657b8f" stroke="#657b8f" stroke-width="1.15" points="105.43,-1026.93 102.98,-1019.93 100.53,-1026.93 105.43,-1026.93"/>
<text text-anchor="middle" x="109.73" y="-1023.12" font-family="Times,serif" font-size="14.00" fill="#7b5d2d">no</text>
</g>
<!-- load -->
<g id="node6" class="node">
<title>load</title>
<path fill="#e5f3e2" stroke="#466b3f" d="M423.2,-981C423.2,-981 358.55,-981 358.55,-981 352.55,-981 346.55,-975 346.55,-969 346.55,-969 346.55,-957 346.55,-957 346.55,-951 352.55,-945 358.55,-945 358.55,-945 423.2,-945 423.2,-945 429.2,-945 435.2,-951 435.2,-957 435.2,-957 435.2,-969 435.2,-969 435.2,-975 429.2,-981 423.2,-981"/>
<text text-anchor="middle" x="390.88" y="-964.55" font-family="Helvetica,sans-Serif" font-size="11.00" fill="#1f2933">Load the model</text>
<text text-anchor="middle" x="390.88" y="-952.55" font-family="Helvetica,sans-Serif" font-size="11.00" fill="#1f2933">(load_model)</text>
</g>
<!-- single&#45;&gt;load -->
<g id="edge5" class="edge">
<title>single&#45;&gt;load</title>
<path fill="none" stroke="#657b8f" stroke-width="1.15" d="M180.99,-950.59C180.99,-950.59 337.37,-950.59 337.37,-950.59"/>
<polygon fill="#657b8f" stroke="#657b8f" stroke-width="1.15" points="337.37,-953.04 344.37,-950.59 337.37,-948.14 337.37,-953.04"/>
</g>
<!-- superinit&#45;&gt;load -->
<g id="edge6" class="edge">
<title>superinit&#45;&gt;load</title>
<path fill="none" stroke="#657b8f" stroke-width="1.15" d="M181.77,-1000C267.01,-1000 390.98,-1000 390.98,-1000 390.98,-1000 390.98,-990.24 390.98,-990.24"/>
<polygon fill="#657b8f" stroke="#657b8f" stroke-width="1.15" points="393.43,-990.24 390.98,-983.24 388.53,-990.24 393.43,-990.24"/>
</g>
<!-- superload -->
<g id="node7" class="node">
<title>superload</title>
<path fill="#e5f3e2" stroke="#466b3f" d="M448.33,-925C448.33,-925 333.43,-925 333.43,-925 327.43,-925 321.43,-919 321.43,-913 321.43,-913 321.43,-901 321.43,-901 321.43,-895 327.43,-889 333.43,-889 333.43,-889 448.33,-889 448.33,-889 454.33,-889 460.33,-895 460.33,-901 460.33,-901 460.33,-913 460.33,-913 460.33,-919 454.33,-925 448.33,-925"/>
<text text-anchor="middle" x="390.88" y="-908.55" font-family="Helvetica,sans-Serif" font-size="11.00" fill="#1f2933">Finish base model loading</text>
<text text-anchor="middle" x="390.88" y="-896.55" font-family="Helvetica,sans-Serif" font-size="11.00" fill="#1f2933">(super().load_model)</text>
</g>
<!-- load&#45;&gt;superload -->
<g id="edge7" class="edge">
<title>load&#45;&gt;superload</title>
<path fill="none" stroke="#657b8f" stroke-width="1.15" d="M390.98,-944.66C390.98,-944.66 390.98,-933.93 390.98,-933.93"/>
<polygon fill="#657b8f" stroke="#657b8f" stroke-width="1.15" points="393.43,-933.93 390.98,-926.93 388.53,-933.93 393.43,-933.93"/>
</g>
<!-- install -->
<g id="node8" class="node">
<title>install</title>
<path fill="#e5f3e2" stroke="#466b3f" d="M445.33,-869C445.33,-869 336.43,-869 336.43,-869 330.43,-869 324.43,-863 324.43,-857 324.43,-857 324.43,-845 324.43,-845 324.43,-839 330.43,-833 336.43,-833 336.43,-833 445.33,-833 445.33,-833 451.33,-833 457.33,-839 457.33,-845 457.33,-845 457.33,-857 457.33,-857 457.33,-863 451.33,-869 445.33,-869"/>
<text text-anchor="middle" x="390.88" y="-852.55" font-family="Helvetica,sans-Serif" font-size="11.00" fill="#1f2933">Prepare hook installation</text>
<text text-anchor="middle" x="390.88" y="-840.55" font-family="Helvetica,sans-Serif" font-size="11.00" fill="#1f2933">(_install_hooks)</text>
</g>
<!-- superload&#45;&gt;install -->
<g id="edge8" class="edge">
<title>superload&#45;&gt;install</title>
<path fill="none" stroke="#657b8f" stroke-width="1.15" d="M390.98,-888.66C390.98,-888.66 390.98,-877.93 390.98,-877.93"/>
<polygon fill="#657b8f" stroke="#657b8f" stroke-width="1.15" points="393.43,-877.93 390.98,-870.93 388.53,-877.93 393.43,-877.93"/>
</g>
<!-- ready -->
<g id="node9" class="node">
<title>ready</title>
<path fill="#fff4d8" stroke="#8a6f35" d="M379.41,-809C379.41,-809 247.7,-768.52 247.7,-768.52 241.96,-766.76 241.96,-763.24 247.7,-761.48 247.7,-761.48 379.41,-721 379.41,-721 385.14,-719.24 396.61,-719.24 402.35,-721 402.35,-721 534.06,-761.48 534.06,-761.48 539.79,-763.24 539.79,-766.76 534.06,-768.52 534.06,-768.52 402.35,-809 402.35,-809 396.61,-810.76 385.14,-810.76 379.41,-809"/>
<text text-anchor="middle" x="390.88" y="-772.55" font-family="Helvetica,sans-Serif" font-size="11.00" fill="#1f2933">Do we have what we need?</text>
<text text-anchor="middle" x="390.88" y="-760.55" font-family="Helvetica,sans-Serif" font-size="11.00" fill="#1f2933">hook files, model dimensions,</text>
<text text-anchor="middle" x="390.88" y="-748.55" font-family="Helvetica,sans-Serif" font-size="11.00" fill="#1f2933">and tracked attention blocks</text>
</g>
<!-- install&#45;&gt;ready -->
<g id="edge9" class="edge">
<title>install&#45;&gt;ready</title>
<path fill="none" stroke="#657b8f" stroke-width="1.15" d="M390.98,-832.76C390.98,-832.76 390.98,-821.68 390.98,-821.68"/>
<polygon fill="#657b8f" stroke="#657b8f" stroke-width="1.15" points="393.43,-821.68 390.98,-814.68 388.53,-821.68 393.43,-821.68"/>
</g>
<!-- hooks -->
<g id="node10" class="node">
<title>hooks</title>
<path fill="#e5f3e2" stroke="#466b3f" d="M467.45,-697.76C467.45,-697.76 314.3,-697.76 314.3,-697.76 308.3,-697.76 302.3,-691.76 302.3,-685.76 302.3,-685.76 302.3,-662.24 302.3,-662.24 302.3,-656.24 308.3,-650.24 314.3,-650.24 314.3,-650.24 467.45,-650.24 467.45,-650.24 473.45,-650.24 479.45,-656.24 479.45,-662.24 479.45,-662.24 479.45,-685.76 479.45,-685.76 479.45,-691.76 473.45,-697.76 467.45,-697.76"/>
<text text-anchor="middle" x="390.88" y="-681.55" font-family="Helvetica,sans-Serif" font-size="11.00" fill="#1f2933">Wrap each tracked attention block</text>
<text text-anchor="middle" x="390.88" y="-669.55" font-family="Helvetica,sans-Serif" font-size="11.00" fill="#1f2933">with an outer observer</text>
<text text-anchor="middle" x="390.88" y="-657.55" font-family="Helvetica,sans-Serif" font-size="11.00" fill="#1f2933">(MLXHookWrapper)</text>
</g>
<!-- ready&#45;&gt;hooks -->
<g id="edge10" class="edge">
<title>ready&#45;&gt;hooks</title>
<path fill="none" stroke="#657b8f" stroke-width="1.15" d="M390.98,-717.1C390.98,-717.1 390.98,-706.59 390.98,-706.59"/>
<polygon fill="#657b8f" stroke="#657b8f" stroke-width="1.15" points="393.43,-706.59 390.98,-699.59 388.53,-706.59 393.43,-706.59"/>
<text text-anchor="middle" x="399.98" y="-702.67" font-family="Times,serif" font-size="14.00" fill="#7b5d2d">yes</text>
</g>
<!-- installed -->
<g id="node11" class="node">
<title>installed</title>
<path fill="#e5f3e2" stroke="#466b3f" d="M452.83,-630C452.83,-630 328.93,-630 328.93,-630 322.93,-630 316.93,-624 316.93,-618 316.93,-618 316.93,-606 316.93,-606 316.93,-600 322.93,-594 328.93,-594 328.93,-594 452.83,-594 452.83,-594 458.83,-594 464.83,-600 464.83,-606 464.83,-606 464.83,-618 464.83,-618 464.83,-624 458.83,-630 452.83,-630"/>
<text text-anchor="middle" x="390.88" y="-607.55" font-family="Helvetica,sans-Serif" font-size="11.00" fill="#1f2933">Announce hook setup result</text>
</g>
<!-- ready&#45;&gt;installed -->
<g id="edge11" class="edge">
<title>ready&#45;&gt;installed</title>
<path fill="none" stroke="#657b8f" stroke-width="1.15" d="M512.98,-754.9C512.98,-721.68 512.98,-618 512.98,-618 512.98,-618 473.81,-618 473.81,-618"/>
<polygon fill="#657b8f" stroke="#657b8f" stroke-width="1.15" points="473.81,-615.55 466.81,-618 473.81,-620.45 473.81,-615.55"/>
<text text-anchor="middle" x="544.48" y="-653.56" font-family="Times,serif" font-size="14.00" fill="#7b5d2d">early return</text>
</g>
<!-- hooks&#45;&gt;installed -->
<g id="edge12" class="edge">
<title>hooks&#45;&gt;installed</title>
<path fill="none" stroke="#657b8f" stroke-width="1.15" d="M390.98,-649.85C390.98,-649.85 390.98,-638.97 390.98,-638.97"/>
<polygon fill="#657b8f" stroke="#657b8f" stroke-width="1.15" points="393.43,-638.97 390.98,-631.97 388.53,-638.97 393.43,-638.97"/>
</g>
<!-- exec -->
<g id="node12" class="node">
<title>exec</title>
<path fill="#f7efe0" stroke="#8a6f35" d="M787.25,-630C787.25,-630 692.6,-630 692.6,-630 686.6,-630 680.6,-624 680.6,-618 680.6,-618 680.6,-606 680.6,-606 680.6,-600 686.6,-594 692.6,-594 692.6,-594 787.25,-594 787.25,-594 793.25,-594 799.25,-600 799.25,-606 799.25,-606 799.25,-618 799.25,-618 799.25,-624 793.25,-630 787.25,-630"/>
<text text-anchor="middle" x="739.93" y="-613.55" font-family="Helvetica,sans-Serif" font-size="11.00" fill="#1f2933">Start model execution</text>
<text text-anchor="middle" x="739.93" y="-601.55" font-family="Helvetica,sans-Serif" font-size="11.00" fill="#1f2933">(execute_model)</text>
</g>
<!-- installed&#45;&gt;exec -->
<g id="edge13" class="edge">
<title>installed&#45;&gt;exec</title>
<path fill="none" stroke="#657b8f" stroke-width="1.15" d="M464.9,-606C464.9,-606 671.46,-606 671.46,-606"/>
<polygon fill="#657b8f" stroke="#657b8f" stroke-width="1.15" points="671.46,-608.45 678.46,-606 671.46,-603.55 671.46,-608.45"/>
</g>
<!-- active -->
<g id="node13" class="node">
<title>active</title>
<path fill="#f7efe0" stroke="#8a6f35" d="M778.63,-574C778.63,-574 701.23,-574 701.23,-574 695.23,-574 689.23,-568 689.23,-562 689.23,-562 689.23,-550 689.23,-550 689.23,-544 695.23,-538 701.23,-538 701.23,-538 778.63,-538 778.63,-538 784.63,-538 790.63,-544 790.63,-550 790.63,-550 790.63,-562 790.63,-562 790.63,-568 784.63,-574 778.63,-574"/>
<text text-anchor="middle" x="739.93" y="-557.55" font-family="Helvetica,sans-Serif" font-size="11.00" fill="#1f2933">Turn capture on</text>
<text text-anchor="middle" x="739.93" y="-545.55" font-family="Helvetica,sans-Serif" font-size="11.00" fill="#1f2933">run the real model</text>
</g>
<!-- exec&#45;&gt;active -->
<g id="edge14" class="edge">
<title>exec&#45;&gt;active</title>
<path fill="none" stroke="#657b8f" stroke-width="1.15" d="M739.98,-593.66C739.98,-593.66 739.98,-582.93 739.98,-582.93"/>
<polygon fill="#657b8f" stroke="#657b8f" stroke-width="1.15" points="742.43,-582.93 739.98,-575.93 737.53,-582.93 742.43,-582.93"/>
</g>
<!-- wrapper -->
<g id="node14" class="node">
<title>wrapper</title>
<path fill="#efe7f7" stroke="#71518d" d="M817.63,-517.76C817.63,-517.76 662.23,-517.76 662.23,-517.76 656.23,-517.76 650.23,-511.76 650.23,-505.76 650.23,-505.76 650.23,-470.24 650.23,-470.24 650.23,-464.24 656.23,-458.24 662.23,-458.24 662.23,-458.24 817.63,-458.24 817.63,-458.24 823.63,-458.24 829.63,-464.24 829.63,-470.24 829.63,-470.24 829.63,-505.76 829.63,-505.76 829.63,-511.76 823.63,-517.76 817.63,-517.76"/>
<text text-anchor="middle" x="739.93" y="-501.55" font-family="Helvetica,sans-Serif" font-size="11.00" fill="#1f2933">A wrapped attention block is called</text>
<text text-anchor="middle" x="739.93" y="-489.55" font-family="Helvetica,sans-Serif" font-size="11.00" fill="#1f2933">run the real block</text>
<text text-anchor="middle" x="739.93" y="-477.55" font-family="Helvetica,sans-Serif" font-size="11.00" fill="#1f2933">then run the observer</text>
<text text-anchor="middle" x="739.93" y="-465.55" font-family="Helvetica,sans-Serif" font-size="11.00" fill="#1f2933">(MLXHookWrapper.__call__)</text>
</g>
<!-- active&#45;&gt;wrapper -->
<g id="edge15" class="edge">
<title>active&#45;&gt;wrapper</title>
<path fill="none" stroke="#657b8f" stroke-width="1.15" d="M739.98,-537.78C739.98,-537.78 739.98,-526.83 739.98,-526.83"/>
<polygon fill="#657b8f" stroke="#657b8f" stroke-width="1.15" points="742.43,-526.83 739.98,-519.83 737.53,-526.83 742.43,-526.83"/>
</g>
<!-- gate -->
<g id="node15" class="node">
<title>gate</title>
<path fill="#fff4d8" stroke="#8a6f35" d="M728.4,-435.19C728.4,-435.19 587.06,-394.33 587.06,-394.33 581.29,-392.67 581.29,-389.33 587.06,-387.67 587.06,-387.67 728.4,-346.81 728.4,-346.81 734.16,-345.15 745.69,-345.15 751.46,-346.81 751.46,-346.81 892.8,-387.67 892.8,-387.67 898.56,-389.33 898.56,-392.67 892.8,-394.33 892.8,-394.33 751.46,-435.19 751.46,-435.19 745.69,-436.85 734.16,-436.85 728.4,-435.19"/>
<text text-anchor="middle" x="739.93" y="-398.55" font-family="Helvetica,sans-Serif" font-size="11.00" fill="#1f2933">Should this visit be recorded?</text>
<text text-anchor="middle" x="739.93" y="-386.55" font-family="Helvetica,sans-Serif" font-size="11.00" fill="#1f2933">capture on and run ID available</text>
<text text-anchor="middle" x="739.93" y="-374.55" font-family="Helvetica,sans-Serif" font-size="11.00" fill="#1f2933">(_current_run_id)</text>
</g>
<!-- wrapper&#45;&gt;gate -->
<g id="edge16" class="edge">
<title>wrapper&#45;&gt;gate</title>
<path fill="none" stroke="#657b8f" stroke-width="1.15" d="M739.98,-457.84C739.98,-457.84 739.98,-447.69 739.98,-447.69"/>
<polygon fill="#657b8f" stroke="#657b8f" stroke-width="1.15" points="742.43,-447.69 739.98,-440.69 737.53,-447.69 742.43,-447.69"/>
</g>
<!-- capture -->
<g id="node16" class="node">
<title>capture</title>
<path fill="#efe7f7" stroke="#71518d" d="M818.75,-323.76C818.75,-323.76 661.1,-323.76 661.1,-323.76 655.1,-323.76 649.1,-317.76 649.1,-311.76 649.1,-311.76 649.1,-264.24 649.1,-264.24 649.1,-258.24 655.1,-252.24 661.1,-252.24 661.1,-252.24 818.75,-252.24 818.75,-252.24 824.75,-252.24 830.75,-258.24 830.75,-264.24 830.75,-264.24 830.75,-311.76 830.75,-311.76 830.75,-317.76 824.75,-323.76 818.75,-323.76"/>
<text text-anchor="middle" x="739.93" y="-307.55" font-family="Helvetica,sans-Serif" font-size="11.00" fill="#1f2933">Read the raw attention input</text>
<text text-anchor="middle" x="739.93" y="-295.55" font-family="Helvetica,sans-Serif" font-size="11.00" fill="#1f2933">build Q, K, and V</text>
<text text-anchor="middle" x="739.93" y="-283.55" font-family="Helvetica,sans-Serif" font-size="11.00" fill="#1f2933">reshape them</text>
<text text-anchor="middle" x="739.93" y="-271.55" font-family="Helvetica,sans-Serif" font-size="11.00" fill="#1f2933">apply positional rotation to Q and K</text>
<text text-anchor="middle" x="739.93" y="-259.55" font-family="Helvetica,sans-Serif" font-size="11.00" fill="#1f2933">(_capture_from_self_attn)</text>
</g>
<!-- gate&#45;&gt;capture -->
<g id="edge18" class="edge">
<title>gate&#45;&gt;capture</title>
<path fill="none" stroke="#657b8f" stroke-width="1.15" d="M739.98,-343.12C739.98,-343.12 739.98,-332.81 739.98,-332.81"/>
<polygon fill="#657b8f" stroke="#657b8f" stroke-width="1.15" points="742.43,-332.81 739.98,-325.81 737.53,-332.81 742.43,-332.81"/>
<text text-anchor="middle" x="748.98" y="-328.79" font-family="Times,serif" font-size="14.00" fill="#7b5d2d">yes</text>
</g>
<!-- finish -->
<g id="node19" class="node">
<title>finish</title>
<path fill="#f7efe0" stroke="#8a6f35" d="M1076.6,-284C1076.6,-284 1009.7,-284 1009.7,-284 1003.7,-284 997.7,-278 997.7,-272 997.7,-272 997.7,-260 997.7,-260 997.7,-254 1003.7,-248 1009.7,-248 1009.7,-248 1076.6,-248 1076.6,-248 1082.6,-248 1088.6,-254 1088.6,-260 1088.6,-260 1088.6,-272 1088.6,-272 1088.6,-278 1082.6,-284 1076.6,-284"/>
<text text-anchor="middle" x="1043.15" y="-261.55" font-family="Helvetica,sans-Serif" font-size="11.00" fill="#1f2933">Turn capture off</text>
</g>
<!-- gate&#45;&gt;finish -->
<g id="edge17" class="edge">
<title>gate&#45;&gt;finish</title>
<path fill="none" stroke="#657b8f" stroke-width="1.15" d="M879.98,-383.64C879.98,-357.9 879.98,-273.41 879.98,-273.41 879.98,-273.41 988.52,-273.41 988.52,-273.41"/>
<polygon fill="#657b8f" stroke="#657b8f" stroke-width="1.15" points="988.52,-275.86 995.52,-273.41 988.52,-270.96 988.52,-275.86"/>
<text text-anchor="middle" x="873.23" y="-260.96" font-family="Times,serif" font-size="14.00" fill="#7b5d2d">no</text>
</g>
<!-- record -->
<g id="node17" class="node">
<title>record</title>
<path fill="#efe7f7" stroke="#71518d" d="M803.75,-231.76C803.75,-231.76 676.1,-231.76 676.1,-231.76 670.1,-231.76 664.1,-225.76 664.1,-219.76 664.1,-219.76 664.1,-196.24 664.1,-196.24 664.1,-190.24 670.1,-184.24 676.1,-184.24 676.1,-184.24 803.75,-184.24 803.75,-184.24 809.75,-184.24 815.75,-190.24 815.75,-196.24 815.75,-196.24 815.75,-219.76 815.75,-219.76 815.75,-225.76 809.75,-231.76 803.75,-231.76"/>
<text text-anchor="middle" x="739.93" y="-215.55" font-family="Helvetica,sans-Serif" font-size="11.00" fill="#1f2933">Convert the captured values</text>
<text text-anchor="middle" x="739.93" y="-203.55" font-family="Helvetica,sans-Serif" font-size="11.00" fill="#1f2933">into CPU tensors for storage</text>
<text text-anchor="middle" x="739.93" y="-191.55" font-family="Helvetica,sans-Serif" font-size="11.00" fill="#1f2933">(_record_qkv)</text>
</g>
<!-- capture&#45;&gt;record -->
<g id="edge19" class="edge">
<title>capture&#45;&gt;record</title>
<path fill="none" stroke="#657b8f" stroke-width="1.15" d="M739.98,-251.75C739.98,-251.75 739.98,-240.96 739.98,-240.96"/>
<polygon fill="#657b8f" stroke="#657b8f" stroke-width="1.15" points="742.43,-240.96 739.98,-233.96 737.53,-240.96 742.43,-240.96"/>
</g>
<!-- append -->
<g id="node18" class="node">
<title>append</title>
<path fill="#efe7f7" stroke="#71518d" d="M844.63,-163.76C844.63,-163.76 635.23,-163.76 635.23,-163.76 629.23,-163.76 623.23,-157.76 623.23,-151.76 623.23,-151.76 623.23,-128.24 623.23,-128.24 623.23,-122.24 629.23,-116.24 635.23,-116.24 635.23,-116.24 844.63,-116.24 844.63,-116.24 850.63,-116.24 856.63,-122.24 856.63,-128.24 856.63,-128.24 856.63,-151.76 856.63,-151.76 856.63,-157.76 850.63,-163.76 844.63,-163.76"/>
<text text-anchor="middle" x="739.93" y="-147.55" font-family="Helvetica,sans-Serif" font-size="11.00" fill="#1f2933">Store raw input, Q, K, and V</text>
<text text-anchor="middle" x="739.93" y="-135.55" font-family="Helvetica,sans-Serif" font-size="11.00" fill="#1f2933">one request packet per sample</text>
<text text-anchor="middle" x="739.93" y="-123.55" font-family="Helvetica,sans-Serif" font-size="11.00" fill="#1f2933">(_append_proj_tokens + _ensure_run_cache)</text>
</g>
<!-- record&#45;&gt;append -->
<g id="edge20" class="edge">
<title>record&#45;&gt;append</title>
<path fill="none" stroke="#657b8f" stroke-width="1.15" d="M739.98,-183.83C739.98,-183.83 739.98,-172.83 739.98,-172.83"/>
<polygon fill="#657b8f" stroke="#657b8f" stroke-width="1.15" points="742.43,-172.83 739.98,-165.83 737.53,-172.83 742.43,-172.83"/>
</g>
<!-- append&#45;&gt;finish -->
<g id="edge21" class="edge">
<title>append&#45;&gt;finish</title>
<path fill="none" stroke="#657b8f" stroke-width="1.15" d="M843.98,-163.97C843.98,-199.72 843.98,-262.83 843.98,-262.83 843.98,-262.83 988.72,-262.83 988.72,-262.83"/>
<polygon fill="#657b8f" stroke="#657b8f" stroke-width="1.15" points="988.72,-265.28 995.72,-262.83 988.72,-260.38 988.72,-265.28"/>
</g>
<!-- flush -->
<g id="node20" class="node">
<title>flush</title>
<path fill="#f3e7f7" stroke="#7b4c8b" d="M1109.98,-227.76C1109.98,-227.76 976.33,-227.76 976.33,-227.76 970.33,-227.76 964.33,-221.76 964.33,-215.76 964.33,-215.76 964.33,-192.24 964.33,-192.24 964.33,-186.24 970.33,-180.24 976.33,-180.24 976.33,-180.24 1109.98,-180.24 1109.98,-180.24 1115.98,-180.24 1121.98,-186.24 1121.98,-192.24 1121.98,-192.24 1121.98,-215.76 1121.98,-215.76 1121.98,-221.76 1115.98,-227.76 1109.98,-227.76"/>
<text text-anchor="middle" x="1043.15" y="-211.55" font-family="Helvetica,sans-Serif" font-size="11.00" fill="#1f2933">Write the run notebook to disk</text>
<text text-anchor="middle" x="1043.15" y="-199.55" font-family="Helvetica,sans-Serif" font-size="11.00" fill="#1f2933">as qkv.pt</text>
<text text-anchor="middle" x="1043.15" y="-187.55" font-family="Helvetica,sans-Serif" font-size="11.00" fill="#1f2933">(_flush_run_cache)</text>
</g>
<!-- finish&#45;&gt;flush -->
<g id="edge22" class="edge">
<title>finish&#45;&gt;flush</title>
<path fill="none" stroke="#657b8f" stroke-width="1.15" d="M1042.98,-247.73C1042.98,-247.73 1042.98,-236.86 1042.98,-236.86"/>
<polygon fill="#657b8f" stroke="#657b8f" stroke-width="1.15" points="1045.43,-236.86 1042.98,-229.86 1040.53,-236.86 1045.43,-236.86"/>
</g>
<!-- dispose -->
<g id="node21" class="node">
<title>dispose</title>
<path fill="#f7f2e7" stroke="#8b6f35" d="M1129.48,-160C1129.48,-160 956.83,-160 956.83,-160 950.83,-160 944.83,-154 944.83,-148 944.83,-148 944.83,-136 944.83,-136 944.83,-130 950.83,-124 956.83,-124 956.83,-124 1129.48,-124 1129.48,-124 1135.48,-124 1141.48,-130 1141.48,-136 1141.48,-136 1141.48,-148 1141.48,-148 1141.48,-154 1135.48,-160 1129.48,-160"/>
<text text-anchor="middle" x="1043.15" y="-143.55" font-family="Helvetica,sans-Serif" font-size="11.00" fill="#1f2933">Dispose the temporary hooked engine</text>
<text text-anchor="middle" x="1043.15" y="-131.55" font-family="Helvetica,sans-Serif" font-size="11.00" fill="#1f2933">(HookLLM._dispose_llm)</text>
</g>
<!-- flush&#45;&gt;dispose -->
<g id="edge23" class="edge">
<title>flush&#45;&gt;dispose</title>
<path fill="none" stroke="#657b8f" stroke-width="1.15" d="M1042.98,-179.85C1042.98,-179.85 1042.98,-168.97 1042.98,-168.97"/>
<polygon fill="#657b8f" stroke="#657b8f" stroke-width="1.15" points="1045.43,-168.97 1042.98,-161.97 1040.53,-168.97 1045.43,-168.97"/>
</g>
<!-- teardown -->
<g id="node22" class="node">
<title>teardown</title>
<path fill="#f7f2e7" stroke="#8b6f35" d="M1139.98,-103.76C1139.98,-103.76 946.33,-103.76 946.33,-103.76 940.33,-103.76 934.33,-97.76 934.33,-91.76 934.33,-91.76 934.33,-68.24 934.33,-68.24 934.33,-62.24 940.33,-56.24 946.33,-56.24 946.33,-56.24 1139.98,-56.24 1139.98,-56.24 1145.98,-56.24 1151.98,-62.24 1151.98,-68.24 1151.98,-68.24 1151.98,-91.76 1151.98,-91.76 1151.98,-97.76 1145.98,-103.76 1139.98,-103.76"/>
<text text-anchor="middle" x="1043.15" y="-87.55" font-family="Helvetica,sans-Serif" font-size="11.00" fill="#1f2933">Ask the worker to restore</text>
<text text-anchor="middle" x="1043.15" y="-75.55" font-family="Helvetica,sans-Serif" font-size="11.00" fill="#1f2933">original attention blocks</text>
<text text-anchor="middle" x="1043.15" y="-63.55" font-family="Helvetica,sans-Serif" font-size="11.00" fill="#1f2933">(engine.collective_rpc &#45;&gt; _uninstall_hooks)</text>
</g>
<!-- dispose&#45;&gt;teardown -->
<g id="edge24" class="edge">
<title>dispose&#45;&gt;teardown</title>
<path fill="none" stroke="#657b8f" stroke-width="1.15" d="M1042.98,-123.73C1042.98,-123.73 1042.98,-112.86 1042.98,-112.86"/>
<polygon fill="#657b8f" stroke="#657b8f" stroke-width="1.15" points="1045.43,-112.86 1042.98,-105.86 1040.53,-112.86 1045.43,-112.86"/>
</g>
<!-- done -->
<g id="node23" class="node">
<title>done</title>
<path fill="#f3e7f7" stroke="#7b4c8b" d="M1094.6,-36C1094.6,-36 991.7,-36 991.7,-36 985.7,-36 979.7,-30 979.7,-24 979.7,-24 979.7,-12 979.7,-12 979.7,-6 985.7,0 991.7,0 991.7,0 1094.6,0 1094.6,0 1100.6,0 1106.6,-6 1106.6,-12 1106.6,-12 1106.6,-24 1106.6,-24 1106.6,-30 1100.6,-36 1094.6,-36"/>
<text text-anchor="middle" x="1043.15" y="-13.55" font-family="Helvetica,sans-Serif" font-size="11.00" fill="#1f2933">Return the model result</text>
</g>
<!-- teardown&#45;&gt;done -->
<g id="edge25" class="edge">
<title>teardown&#45;&gt;done</title>
<path fill="none" stroke="#657b8f" stroke-width="1.15" d="M1042.98,-55.85C1042.98,-55.85 1042.98,-44.97 1042.98,-44.97"/>
<polygon fill="#657b8f" stroke="#657b8f" stroke-width="1.15" points="1045.43,-44.97 1042.98,-37.97 1040.53,-44.97 1045.43,-44.97"/>
</g>
</g>
</svg>
