<?xml version="1.0" encoding="UTF-8" standalone="no"?>
<!DOCTYPE svg PUBLIC "-//W3C//DTD SVG 1.1//EN"
 "http://www.w3.org/Graphics/SVG/1.1/DTD/svg11.dtd">
<!-- Generated by graphviz version 12.2.1 (20241206.2353)
 -->
<!-- Title: metal_self_attn_housing_flow Pages: 1 -->
<svg width="1726pt" height="670pt"
 viewBox="0.00 0.00 1725.58 670.32" xmlns="http://www.w3.org/2000/svg" xmlns:xlink="http://www.w3.org/1999/xlink">
<g id="graph0" class="graph" transform="scale(1 1) rotate(0) translate(15.84 654.48)">
<title>metal_self_attn_housing_flow</title>
<polygon fill="white" stroke="none" points="-15.84,15.84 -15.84,-654.48 1709.74,-654.48 1709.74,15.84 -15.84,15.84"/>
<!-- start -->
<g id="node1" class="node">
<title>start</title>
<path fill="#dfeaf6" stroke="#3b5870" d="M146.4,-638.64C146.4,-638.64 12,-638.64 12,-638.64 6,-638.64 0,-632.64 0,-626.64 0,-626.64 0,-603.12 0,-603.12 0,-597.12 6,-591.12 12,-591.12 12,-591.12 146.4,-591.12 146.4,-591.12 152.4,-591.12 158.4,-597.12 158.4,-603.12 158.4,-603.12 158.4,-626.64 158.4,-626.64 158.4,-632.64 152.4,-638.64 146.4,-638.64"/>
<text text-anchor="middle" x="79.2" y="-622.43" font-family="Helvetica,sans-Serif" font-size="11.00" fill="#1f2933">HookLLM opens the building</text>
<text text-anchor="middle" x="79.2" y="-610.43" font-family="Helvetica,sans-Serif" font-size="11.00" fill="#1f2933">creates a new notebook</text>
<text text-anchor="middle" x="79.2" y="-598.43" font-family="Helvetica,sans-Serif" font-size="11.00" fill="#1f2933">and opens the recording room</text>
</g>
<!-- load -->
<g id="node2" class="node">
<title>load</title>
<path fill="#dfeaf6" stroke="#3b5870" d="M351.65,-638.64C351.65,-638.64 194.75,-638.64 194.75,-638.64 188.75,-638.64 182.75,-632.64 182.75,-626.64 182.75,-626.64 182.75,-603.12 182.75,-603.12 182.75,-597.12 188.75,-591.12 194.75,-591.12 194.75,-591.12 351.65,-591.12 351.65,-591.12 357.65,-591.12 363.65,-597.12 363.65,-603.12 363.65,-603.12 363.65,-626.64 363.65,-626.64 363.65,-632.64 357.65,-638.64 351.65,-638.64"/>
<text text-anchor="middle" x="273.2" y="-622.43" font-family="Helvetica,sans-Serif" font-size="11.00" fill="#1f2933">The worker enters the building,</text>
<text text-anchor="middle" x="273.2" y="-610.43" font-family="Helvetica,sans-Serif" font-size="11.00" fill="#1f2933">reads the posted hook instructions,</text>
<text text-anchor="middle" x="273.2" y="-598.43" font-family="Helvetica,sans-Serif" font-size="11.00" fill="#1f2933">and notes which floors matter</text>
</g>
<!-- start&#45;&gt;load -->
<g id="edge1" class="edge">
<title>start&#45;&gt;load</title>
<path fill="none" stroke="#657b8f" stroke-width="1.15" d="M158.67,-607C158.67,-607 173.73,-607 173.73,-607"/>
<polygon fill="#657b8f" stroke="#657b8f" stroke-width="1.15" points="173.73,-609.45 180.73,-607 173.73,-604.55 173.73,-609.45"/>
</g>
<!-- start&#45;&gt;load -->
<!-- wrap -->
<g id="node3" class="node">
<title>wrap</title>
<path fill="#e5f3e2" stroke="#466b3f" d="M368.53,-554.12C368.53,-554.12 177.88,-554.12 177.88,-554.12 171.88,-554.12 165.88,-548.12 165.88,-542.12 165.88,-542.12 165.88,-506.6 165.88,-506.6 165.88,-500.6 171.88,-494.6 177.88,-494.6 177.88,-494.6 368.53,-494.6 368.53,-494.6 374.53,-494.6 380.53,-500.6 380.53,-506.6 380.53,-506.6 380.53,-542.12 380.53,-542.12 380.53,-548.12 374.53,-554.12 368.53,-554.12"/>
<text text-anchor="middle" x="273.2" y="-537.91" font-family="Helvetica,sans-Serif" font-size="11.00" fill="#1f2933">The building directory finds each</text>
<text text-anchor="middle" x="273.2" y="-525.91" font-family="Helvetica,sans-Serif" font-size="11.00" fill="#1f2933">tracked self_attn house,</text>
<text text-anchor="middle" x="273.2" y="-513.91" font-family="Helvetica,sans-Serif" font-size="11.00" fill="#1f2933">checks the house has the right occupants,</text>
<text text-anchor="middle" x="273.2" y="-501.91" font-family="Helvetica,sans-Serif" font-size="11.00" fill="#1f2933">and installs temporary outer houses</text>
</g>
<!-- load&#45;&gt;wrap -->
<g id="edge2" class="edge">
<title>load&#45;&gt;wrap</title>
<path fill="none" stroke="#657b8f" stroke-width="1.15" d="M273.2,-590.62C273.2,-590.62 273.2,-563.25 273.2,-563.25"/>
<polygon fill="#657b8f" stroke="#657b8f" stroke-width="1.15" points="275.65,-563.25 273.2,-556.25 270.75,-563.25 275.65,-563.25"/>
</g>
<!-- exec -->
<g id="node4" class="node">
<title>exec</title>
<path fill="#f7efe0" stroke="#8a6f35" d="M511.9,-542.36C511.9,-542.36 416.5,-542.36 416.5,-542.36 410.5,-542.36 404.5,-536.36 404.5,-530.36 404.5,-530.36 404.5,-518.36 404.5,-518.36 404.5,-512.36 410.5,-506.36 416.5,-506.36 416.5,-506.36 511.9,-506.36 511.9,-506.36 517.9,-506.36 523.9,-512.36 523.9,-518.36 523.9,-518.36 523.9,-530.36 523.9,-530.36 523.9,-536.36 517.9,-542.36 511.9,-542.36"/>
<text text-anchor="middle" x="464.2" y="-525.91" font-family="Helvetica,sans-Serif" font-size="11.00" fill="#1f2933">Visitors are allowed in</text>
<text text-anchor="middle" x="464.2" y="-513.91" font-family="Helvetica,sans-Serif" font-size="11.00" fill="#1f2933">capture is active</text>
</g>
<!-- wrap&#45;&gt;exec -->
<g id="edge3" class="edge">
<title>wrap&#45;&gt;exec</title>
<path fill="none" stroke="#657b8f" stroke-width="1.15" d="M380.98,-530C380.98,-530 395.53,-530 395.53,-530"/>
<polygon fill="#657b8f" stroke="#657b8f" stroke-width="1.15" points="395.53,-532.45 402.53,-530 395.53,-527.55 395.53,-532.45"/>
</g>
<!-- wrap&#45;&gt;exec -->
<!-- door -->
<g id="node5" class="node">
<title>door</title>
<path fill="#f7efe0" stroke="#8a6f35" d="M678.15,-542.36C678.15,-542.36 560.25,-542.36 560.25,-542.36 554.25,-542.36 548.25,-536.36 548.25,-530.36 548.25,-530.36 548.25,-518.36 548.25,-518.36 548.25,-512.36 554.25,-506.36 560.25,-506.36 560.25,-506.36 678.15,-506.36 678.15,-506.36 684.15,-506.36 690.15,-512.36 690.15,-518.36 690.15,-518.36 690.15,-530.36 690.15,-530.36 690.15,-536.36 684.15,-542.36 678.15,-542.36"/>
<text text-anchor="middle" x="619.2" y="-525.91" font-family="Helvetica,sans-Serif" font-size="11.00" fill="#1f2933">A visitor packet x arrives at</text>
<text text-anchor="middle" x="619.2" y="-513.91" font-family="Helvetica,sans-Serif" font-size="11.00" fill="#1f2933">a self_attn front door</text>
</g>
<!-- exec&#45;&gt;door -->
<g id="edge4" class="edge">
<title>exec&#45;&gt;door</title>
<path fill="none" stroke="#657b8f" stroke-width="1.15" d="M524.13,-518C524.13,-518 539.05,-518 539.05,-518"/>
<polygon fill="#657b8f" stroke="#657b8f" stroke-width="1.15" points="539.05,-520.45 546.05,-518 539.05,-515.55 539.05,-520.45"/>
</g>
<!-- exec&#45;&gt;door -->
<!-- room -->
<g id="node6" class="node">
<title>room</title>
<path fill="#efe7f7" stroke="#71518d" d="M698.4,-416.08C698.4,-416.08 540,-416.08 540,-416.08 534,-416.08 528,-410.08 528,-404.08 528,-404.08 528,-392.08 528,-392.08 528,-386.08 534,-380.08 540,-380.08 540,-380.08 698.4,-380.08 698.4,-380.08 704.4,-380.08 710.4,-386.08 710.4,-392.08 710.4,-392.08 710.4,-404.08 710.4,-404.08 710.4,-410.08 704.4,-416.08 698.4,-416.08"/>
<text text-anchor="middle" x="619.2" y="-399.63" font-family="Helvetica,sans-Serif" font-size="11.00" fill="#1f2933">The recording room checks</text>
<text text-anchor="middle" x="619.2" y="-387.63" font-family="Helvetica,sans-Serif" font-size="11.00" fill="#1f2933">which notebook this visit belongs to</text>
</g>
<!-- door&#45;&gt;room -->
<g id="edge5" class="edge">
<title>door&#45;&gt;room</title>
<path fill="none" stroke="#657b8f" stroke-width="1.15" d="M619.2,-506C619.2,-506 619.2,-425.2 619.2,-425.2"/>
<polygon fill="#657b8f" stroke="#657b8f" stroke-width="1.15" points="621.65,-425.2 619.2,-418.2 616.75,-425.2 621.65,-425.2"/>
</g>
<!-- gate -->
<g id="node7" class="node">
<title>gate</title>
<path fill="#fff4d8" stroke="#8a6f35" d="M895.86,-453.69C895.86,-453.69 745.89,-401.99 745.89,-401.99 740.22,-400.04 740.22,-396.12 745.89,-394.17 745.89,-394.17 895.86,-342.47 895.86,-342.47 901.53,-340.52 912.87,-340.52 918.54,-342.47 918.54,-342.47 1068.51,-394.17 1068.51,-394.17 1074.18,-396.12 1074.18,-400.04 1068.51,-401.99 1068.51,-401.99 918.54,-453.69 918.54,-453.69 912.87,-455.64 901.53,-455.64 895.86,-453.69"/>
<text text-anchor="middle" x="907.2" y="-411.63" font-family="Helvetica,sans-Serif" font-size="11.00" fill="#1f2933">Is the recording room open?</text>
<text text-anchor="middle" x="907.2" y="-399.63" font-family="Helvetica,sans-Serif" font-size="11.00" fill="#1f2933">Capture must be active,</text>
<text text-anchor="middle" x="907.2" y="-387.63" font-family="Helvetica,sans-Serif" font-size="11.00" fill="#1f2933">the hook flag must be posted,</text>
<text text-anchor="middle" x="907.2" y="-375.63" font-family="Helvetica,sans-Serif" font-size="11.00" fill="#1f2933">and a run notebook ID must exist</text>
</g>
<!-- room&#45;&gt;gate -->
<g id="edge6" class="edge">
<title>room&#45;&gt;gate</title>
<path fill="none" stroke="#657b8f" stroke-width="1.15" d="M710.72,-404C710.72,-404 741.7,-404 741.7,-404"/>
<polygon fill="#657b8f" stroke="#657b8f" stroke-width="1.15" points="741.7,-406.45 748.7,-404 741.7,-401.55 741.7,-406.45"/>
</g>
<!-- room&#45;&gt;gate -->
<!-- raw -->
<g id="node8" class="node">
<title>raw</title>
<path fill="#efe7f7" stroke="#71518d" d="M1230.65,-416.08C1230.65,-416.08 1115.75,-416.08 1115.75,-416.08 1109.75,-416.08 1103.75,-410.08 1103.75,-404.08 1103.75,-404.08 1103.75,-392.08 1103.75,-392.08 1103.75,-386.08 1109.75,-380.08 1115.75,-380.08 1115.75,-380.08 1230.65,-380.08 1230.65,-380.08 1236.65,-380.08 1242.65,-386.08 1242.65,-392.08 1242.65,-392.08 1242.65,-404.08 1242.65,-404.08 1242.65,-410.08 1236.65,-416.08 1230.65,-416.08"/>
<text text-anchor="middle" x="1173.2" y="-399.63" font-family="Helvetica,sans-Serif" font-size="11.00" fill="#1f2933">Write down the raw visitor</text>
<text text-anchor="middle" x="1173.2" y="-387.63" font-family="Helvetica,sans-Serif" font-size="11.00" fill="#1f2933">packet x</text>
</g>
<!-- gate&#45;&gt;raw -->
<g id="edge8" class="edge">
<title>gate&#45;&gt;raw</title>
<path fill="none" stroke="#657b8f" stroke-width="1.15" d="M1063.86,-404C1063.86,-404 1094.73,-404 1094.73,-404"/>
<polygon fill="#657b8f" stroke="#657b8f" stroke-width="1.15" points="1094.73,-406.45 1101.73,-404 1094.73,-401.55 1094.73,-406.45"/>
<text text-anchor="middle" x="1088.29" y="-407.2" font-family="Times,serif" font-size="14.00" fill="#7b5d2d">yes</text>
</g>
<!-- gate&#45;&gt;raw -->
<!-- inner -->
<g id="node13" class="node">
<title>inner</title>
<path fill="#f7efe0" stroke="#8a6f35" d="M1073.15,-205.28C1073.15,-205.28 967.25,-205.28 967.25,-205.28 961.25,-205.28 955.25,-199.28 955.25,-193.28 955.25,-193.28 955.25,-181.28 955.25,-181.28 955.25,-175.28 961.25,-169.28 967.25,-169.28 967.25,-169.28 1073.15,-169.28 1073.15,-169.28 1079.15,-169.28 1085.15,-175.28 1085.15,-181.28 1085.15,-181.28 1085.15,-193.28 1085.15,-193.28 1085.15,-199.28 1079.15,-205.28 1073.15,-205.28"/>
<text text-anchor="middle" x="1020.2" y="-188.83" font-family="Helvetica,sans-Serif" font-size="11.00" fill="#1f2933">Send the real visitor into</text>
<text text-anchor="middle" x="1020.2" y="-176.83" font-family="Helvetica,sans-Serif" font-size="11.00" fill="#1f2933">the original inner house</text>
</g>
<!-- gate&#45;&gt;inner -->
<g id="edge7" class="edge">
<title>gate&#45;&gt;inner</title>
<path fill="none" stroke="#657b8f" stroke-width="1.15" d="M987.81,-366.06C987.81,-366.06 987.81,-214.26 987.81,-214.26"/>
<polygon fill="#657b8f" stroke="#657b8f" stroke-width="1.15" points="990.26,-214.26 987.81,-207.26 985.36,-214.26 990.26,-214.26"/>
<text text-anchor="middle" x="981.06" y="-293.36" font-family="Times,serif" font-size="14.00" fill="#7b5d2d">no</text>
</g>
<!-- proj -->
<g id="node9" class="node">
<title>proj</title>
<path fill="#efe7f7" stroke="#71518d" d="M1160.03,-295.8C1160.03,-295.8 1032.38,-295.8 1032.38,-295.8 1026.38,-295.8 1020.38,-289.8 1020.38,-283.8 1020.38,-283.8 1020.38,-271.8 1020.38,-271.8 1020.38,-265.8 1026.38,-259.8 1032.38,-259.8 1032.38,-259.8 1160.03,-259.8 1160.03,-259.8 1166.03,-259.8 1172.03,-265.8 1172.03,-271.8 1172.03,-271.8 1172.03,-283.8 1172.03,-283.8 1172.03,-289.8 1166.03,-295.8 1160.03,-295.8"/>
<text text-anchor="middle" x="1096.2" y="-279.35" font-family="Helvetica,sans-Serif" font-size="11.00" fill="#1f2933">Make three specialist copies:</text>
<text text-anchor="middle" x="1096.2" y="-267.35" font-family="Helvetica,sans-Serif" font-size="11.00" fill="#1f2933">Q visitor, K visitor, V visitor</text>
</g>
<!-- raw&#45;&gt;proj -->
<g id="edge9" class="edge">
<title>raw&#45;&gt;proj</title>
<path fill="none" stroke="#657b8f" stroke-width="1.15" d="M1137.89,-379.81C1137.89,-379.81 1137.89,-304.98 1137.89,-304.98"/>
<polygon fill="#657b8f" stroke="#657b8f" stroke-width="1.15" points="1140.34,-304.98 1137.89,-297.98 1135.44,-304.98 1140.34,-304.98"/>
</g>
<!-- shape -->
<g id="node10" class="node">
<title>shape</title>
<path fill="#efe7f7" stroke="#71518d" d="M1338.53,-301.56C1338.53,-301.56 1207.88,-301.56 1207.88,-301.56 1201.88,-301.56 1195.88,-295.56 1195.88,-289.56 1195.88,-289.56 1195.88,-266.04 1195.88,-266.04 1195.88,-260.04 1201.88,-254.04 1207.88,-254.04 1207.88,-254.04 1338.53,-254.04 1338.53,-254.04 1344.53,-254.04 1350.53,-260.04 1350.53,-266.04 1350.53,-266.04 1350.53,-289.56 1350.53,-289.56 1350.53,-295.56 1344.53,-301.56 1338.53,-301.56"/>
<text text-anchor="middle" x="1273.2" y="-285.35" font-family="Helvetica,sans-Serif" font-size="11.00" fill="#1f2933">Arrange the copied packets</text>
<text text-anchor="middle" x="1273.2" y="-273.35" font-family="Helvetica,sans-Serif" font-size="11.00" fill="#1f2933">into the same attention layout</text>
<text text-anchor="middle" x="1273.2" y="-261.35" font-family="Helvetica,sans-Serif" font-size="11.00" fill="#1f2933">the inner house will use</text>
</g>
<!-- proj&#45;&gt;shape -->
<g id="edge10" class="edge">
<title>proj&#45;&gt;shape</title>
<path fill="none" stroke="#657b8f" stroke-width="1.15" d="M1172.29,-284C1172.29,-284 1186.74,-284 1186.74,-284"/>
<polygon fill="#657b8f" stroke="#657b8f" stroke-width="1.15" points="1186.74,-286.45 1193.74,-284 1186.74,-281.55 1186.74,-286.45"/>
</g>
<!-- proj&#45;&gt;shape -->
<!-- rope -->
<g id="node11" class="node">
<title>rope</title>
<path fill="#efe7f7" stroke="#71518d" d="M934.4,-301.56C934.4,-301.56 818,-301.56 818,-301.56 812,-301.56 806,-295.56 806,-289.56 806,-289.56 806,-266.04 806,-266.04 806,-260.04 812,-254.04 818,-254.04 818,-254.04 934.4,-254.04 934.4,-254.04 940.4,-254.04 946.4,-260.04 946.4,-266.04 946.4,-266.04 946.4,-289.56 946.4,-289.56 946.4,-295.56 940.4,-301.56 934.4,-301.56"/>
<text text-anchor="middle" x="876.2" y="-285.35" font-family="Helvetica,sans-Serif" font-size="11.00" fill="#1f2933">Send Q and K through the</text>
<text text-anchor="middle" x="876.2" y="-273.35" font-family="Helvetica,sans-Serif" font-size="11.00" fill="#1f2933">position checkpoint</text>
<text text-anchor="middle" x="876.2" y="-261.35" font-family="Helvetica,sans-Serif" font-size="11.00" fill="#1f2933">use cache offset if needed</text>
</g>
<!-- shape&#45;&gt;rope -->
<g id="edge11" class="edge">
<title>shape&#45;&gt;rope</title>
<path fill="none" stroke="#657b8f" stroke-width="1.15" d="M1230.14,-253.69C1230.14,-241.39 1230.14,-229 1230.14,-229 1230.14,-229 936.23,-229 936.23,-229 936.23,-229 936.23,-244.95 936.23,-244.95"/>
<polygon fill="#657b8f" stroke="#657b8f" stroke-width="1.15" points="933.78,-244.95 936.23,-251.95 938.68,-244.95 933.78,-244.95"/>
</g>
<!-- shape&#45;&gt;rope -->
<!-- note -->
<g id="node12" class="node">
<title>note</title>
<path fill="#efe7f7" stroke="#71518d" d="M919.15,-217.04C919.15,-217.04 759.25,-217.04 759.25,-217.04 753.25,-217.04 747.25,-211.04 747.25,-205.04 747.25,-205.04 747.25,-169.52 747.25,-169.52 747.25,-163.52 753.25,-157.52 759.25,-157.52 759.25,-157.52 919.15,-157.52 919.15,-157.52 925.15,-157.52 931.15,-163.52 931.15,-169.52 931.15,-169.52 931.15,-205.04 931.15,-205.04 931.15,-211.04 925.15,-217.04 919.15,-217.04"/>
<text text-anchor="middle" x="839.2" y="-200.83" font-family="Helvetica,sans-Serif" font-size="11.00" fill="#1f2933">File x, q, k, and v into the notebook:</text>
<text text-anchor="middle" x="839.2" y="-188.83" font-family="Helvetica,sans-Serif" font-size="11.00" fill="#1f2933">one floor tab per layer,</text>
<text text-anchor="middle" x="839.2" y="-176.83" font-family="Helvetica,sans-Serif" font-size="11.00" fill="#1f2933">one section per packet kind,</text>
<text text-anchor="middle" x="839.2" y="-164.83" font-family="Helvetica,sans-Serif" font-size="11.00" fill="#1f2933">one request packet per sample</text>
</g>
<!-- rope&#45;&gt;note -->
<g id="edge12" class="edge">
<title>rope&#45;&gt;note</title>
<path fill="none" stroke="#657b8f" stroke-width="1.15" d="M868.58,-253.54C868.58,-253.54 868.58,-226.17 868.58,-226.17"/>
<polygon fill="#657b8f" stroke="#657b8f" stroke-width="1.15" points="871.03,-226.17 868.58,-219.17 866.13,-226.17 871.03,-226.17"/>
</g>
<!-- note&#45;&gt;inner -->
<g id="edge13" class="edge">
<title>note&#45;&gt;inner</title>
<path fill="none" stroke="#657b8f" stroke-width="1.15" d="M931.56,-181C931.56,-181 946.06,-181 946.06,-181"/>
<polygon fill="#657b8f" stroke="#657b8f" stroke-width="1.15" points="946.06,-183.45 953.06,-181 946.06,-178.55 946.06,-183.45"/>
</g>
<!-- note&#45;&gt;inner -->
<!-- real -->
<g id="node14" class="node">
<title>real</title>
<path fill="#f7efe0" stroke="#8a6f35" d="M1235.28,-205.28C1235.28,-205.28 1121.12,-205.28 1121.12,-205.28 1115.12,-205.28 1109.12,-199.28 1109.12,-193.28 1109.12,-193.28 1109.12,-181.28 1109.12,-181.28 1109.12,-175.28 1115.12,-169.28 1121.12,-169.28 1121.12,-169.28 1235.28,-169.28 1235.28,-169.28 1241.28,-169.28 1247.28,-175.28 1247.28,-181.28 1247.28,-181.28 1247.28,-193.28 1247.28,-193.28 1247.28,-199.28 1241.28,-205.28 1235.28,-205.28"/>
<text text-anchor="middle" x="1178.2" y="-188.83" font-family="Helvetica,sans-Serif" font-size="11.00" fill="#1f2933">The inner house performs</text>
<text text-anchor="middle" x="1178.2" y="-176.83" font-family="Helvetica,sans-Serif" font-size="11.00" fill="#1f2933">real attention work</text>
</g>
<!-- inner&#45;&gt;real -->
<g id="edge14" class="edge">
<title>inner&#45;&gt;real</title>
<path fill="none" stroke="#657b8f" stroke-width="1.15" d="M1085.38,-193C1085.38,-193 1100.08,-193 1100.08,-193"/>
<polygon fill="#657b8f" stroke="#657b8f" stroke-width="1.15" points="1100.08,-195.45 1107.08,-193 1100.08,-190.55 1100.08,-195.45"/>
</g>
<!-- inner&#45;&gt;real -->
<!-- stop -->
<g id="node15" class="node">
<title>stop</title>
<path fill="#f7efe0" stroke="#8a6f35" d="M1236.4,-114.76C1236.4,-114.76 1120,-114.76 1120,-114.76 1114,-114.76 1108,-108.76 1108,-102.76 1108,-102.76 1108,-90.76 1108,-90.76 1108,-84.76 1114,-78.76 1120,-78.76 1120,-78.76 1236.4,-78.76 1236.4,-78.76 1242.4,-78.76 1248.4,-84.76 1248.4,-90.76 1248.4,-90.76 1248.4,-102.76 1248.4,-102.76 1248.4,-108.76 1242.4,-114.76 1236.4,-114.76"/>
<text text-anchor="middle" x="1178.2" y="-92.31" font-family="Helvetica,sans-Serif" font-size="11.00" fill="#1f2933">Capture closes for this run</text>
</g>
<!-- real&#45;&gt;stop -->
<g id="edge15" class="edge">
<title>real&#45;&gt;stop</title>
<path fill="none" stroke="#657b8f" stroke-width="1.15" d="M1178.2,-168.96C1178.2,-168.96 1178.2,-123.79 1178.2,-123.79"/>
<polygon fill="#657b8f" stroke="#657b8f" stroke-width="1.15" points="1180.65,-123.79 1178.2,-116.79 1175.75,-123.79 1180.65,-123.79"/>
</g>
<!-- archive -->
<g id="node16" class="node">
<title>archive</title>
<path fill="#f3e7f7" stroke="#7b4c8b" d="M1430.4,-114.76C1430.4,-114.76 1284,-114.76 1284,-114.76 1278,-114.76 1272,-108.76 1272,-102.76 1272,-102.76 1272,-90.76 1272,-90.76 1272,-84.76 1278,-78.76 1284,-78.76 1284,-78.76 1430.4,-78.76 1430.4,-78.76 1436.4,-78.76 1442.4,-84.76 1442.4,-90.76 1442.4,-90.76 1442.4,-102.76 1442.4,-102.76 1442.4,-108.76 1436.4,-114.76 1430.4,-114.76"/>
<text text-anchor="middle" x="1357.2" y="-98.31" font-family="Helvetica,sans-Serif" font-size="11.00" fill="#1f2933">Archive the notebook to disk</text>
<text text-anchor="middle" x="1357.2" y="-86.31" font-family="Helvetica,sans-Serif" font-size="11.00" fill="#1f2933">as qkv.pt in the run archive room</text>
</g>
<!-- stop&#45;&gt;archive -->
<g id="edge16" class="edge">
<title>stop&#45;&gt;archive</title>
<path fill="none" stroke="#657b8f" stroke-width="1.15" d="M1248.69,-91C1248.69,-91 1262.89,-91 1262.89,-91"/>
<polygon fill="#657b8f" stroke="#657b8f" stroke-width="1.15" points="1262.89,-93.45 1269.89,-91 1262.89,-88.55 1262.89,-93.45"/>
</g>
<!-- stop&#45;&gt;archive -->
<!-- restore -->
<g id="node17" class="node">
<title>restore</title>
<path fill="#f7f2e7" stroke="#8b6f35" d="M1681.9,-120.52C1681.9,-120.52 1478.5,-120.52 1478.5,-120.52 1472.5,-120.52 1466.5,-114.52 1466.5,-108.52 1466.5,-108.52 1466.5,-85 1466.5,-85 1466.5,-79 1472.5,-73 1478.5,-73 1478.5,-73 1681.9,-73 1681.9,-73 1687.9,-73 1693.9,-79 1693.9,-85 1693.9,-85 1693.9,-108.52 1693.9,-108.52 1693.9,-114.52 1687.9,-120.52 1681.9,-120.52"/>
<text text-anchor="middle" x="1580.2" y="-104.31" font-family="Helvetica,sans-Serif" font-size="11.00" fill="#1f2933">When the temporary hooked engine</text>
<text text-anchor="middle" x="1580.2" y="-92.31" font-family="Helvetica,sans-Serif" font-size="11.00" fill="#1f2933">is disposed, remove the temporary</text>
<text text-anchor="middle" x="1580.2" y="-80.31" font-family="Helvetica,sans-Serif" font-size="11.00" fill="#1f2933">outer houses and restore the original houses</text>
</g>
<!-- archive&#45;&gt;restore -->
<g id="edge17" class="edge">
<title>archive&#45;&gt;restore</title>
<path fill="none" stroke="#657b8f" stroke-width="1.15" d="M1442.78,-91C1442.78,-91 1457.62,-91 1457.62,-91"/>
<polygon fill="#657b8f" stroke="#657b8f" stroke-width="1.15" points="1457.62,-93.45 1464.62,-91 1457.62,-88.55 1457.62,-93.45"/>
</g>
<!-- archive&#45;&gt;restore -->
<!-- score -->
<g id="node18" class="node">
<title>score</title>
<path fill="#f3e7f7" stroke="#7b4c8b" d="M1654.9,-36C1654.9,-36 1505.5,-36 1505.5,-36 1499.5,-36 1493.5,-30 1493.5,-24 1493.5,-24 1493.5,-12 1493.5,-12 1493.5,-6 1499.5,0 1505.5,0 1505.5,0 1654.9,0 1654.9,0 1660.9,0 1666.9,-6 1666.9,-12 1666.9,-12 1666.9,-24 1666.9,-24 1666.9,-30 1660.9,-36 1654.9,-36"/>
<text text-anchor="middle" x="1580.2" y="-19.55" font-family="Helvetica,sans-Serif" font-size="11.00" fill="#1f2933">The scoring desk reads the notes</text>
<text text-anchor="middle" x="1580.2" y="-7.55" font-family="Helvetica,sans-Serif" font-size="11.00" fill="#1f2933">through the normalized qk view</text>
</g>
<!-- restore&#45;&gt;score -->
<g id="edge18" class="edge">
<title>restore&#45;&gt;score</title>
<path fill="none" stroke="#657b8f" stroke-width="1.15" d="M1580.2,-72.7C1580.2,-72.7 1580.2,-44.9 1580.2,-44.9"/>
<polygon fill="#657b8f" stroke="#657b8f" stroke-width="1.15" points="1582.65,-44.9 1580.2,-37.9 1577.75,-44.9 1582.65,-44.9"/>
</g>
</g>
</svg>
